<mxfile host="app.diagrams.net" modified="2024-05-14T15:40:37.828Z" agent="Mozilla/5.0 (Windows NT 10.0; Win64; x64) AppleWebKit/537.36 (KHTML, like Gecko) Chrome/124.0.0.0 Safari/537.36" etag="STom_-NlXR6rdz-DFdSJ" version="24.4.0" type="device">
  <diagram id="R2lEEEUBdFMjLlhIrx00" name="Page-1">
    <mxGraphModel dx="578" dy="847" grid="1" gridSize="10" guides="1" tooltips="1" connect="1" arrows="1" fold="1" page="1" pageScale="1" pageWidth="850" pageHeight="1100" math="0" shadow="0" extFonts="Permanent Marker^https://fonts.googleapis.com/css?family=Permanent+Marker">
      <root>
        <mxCell id="0" />
        <mxCell id="1" parent="0" />
        <mxCell id="5xe0M_VnaAPw3AtTbi0Y-1" value="modelo" style="whiteSpace=wrap;html=1;align=center;fillColor=#1ba1e2;fontColor=#ffffff;strokeColor=#006EAF;" parent="1" vertex="1">
          <mxGeometry x="180" y="160" width="100" height="40" as="geometry" />
        </mxCell>
        <mxCell id="5xe0M_VnaAPw3AtTbi0Y-2" value="id_modelo" style="ellipse;whiteSpace=wrap;html=1;align=center;fontStyle=4;fillColor=#b1ddf0;strokeColor=#10739e;" parent="1" vertex="1">
          <mxGeometry x="180" y="100" width="100" height="40" as="geometry" />
        </mxCell>
        <mxCell id="5xe0M_VnaAPw3AtTbi0Y-4" value="nombre" style="ellipse;whiteSpace=wrap;html=1;align=center;" parent="1" vertex="1">
          <mxGeometry x="70" y="100" width="100" height="40" as="geometry" />
        </mxCell>
        <mxCell id="5xe0M_VnaAPw3AtTbi0Y-5" value="precio" style="ellipse;whiteSpace=wrap;html=1;align=center;" parent="1" vertex="1">
          <mxGeometry x="60" y="160" width="100" height="40" as="geometry" />
        </mxCell>
        <mxCell id="5xe0M_VnaAPw3AtTbi0Y-6" value="motor" style="whiteSpace=wrap;html=1;align=center;fillColor=#1ba1e2;fontColor=#ffffff;strokeColor=#006EAF;" parent="1" vertex="1">
          <mxGeometry x="490" y="160" width="100" height="40" as="geometry" />
        </mxCell>
        <mxCell id="5xe0M_VnaAPw3AtTbi0Y-7" value="nombre" style="ellipse;whiteSpace=wrap;html=1;align=center;" parent="1" vertex="1">
          <mxGeometry x="600" y="100" width="100" height="40" as="geometry" />
        </mxCell>
        <mxCell id="5xe0M_VnaAPw3AtTbi0Y-8" value="cilindrada" style="ellipse;whiteSpace=wrap;html=1;align=center;" parent="1" vertex="1">
          <mxGeometry x="610" y="160" width="100" height="40" as="geometry" />
        </mxCell>
        <mxCell id="5xe0M_VnaAPw3AtTbi0Y-9" value="potencia" style="ellipse;whiteSpace=wrap;html=1;align=center;" parent="1" vertex="1">
          <mxGeometry x="610" y="220" width="100" height="40" as="geometry" />
        </mxCell>
        <mxCell id="5xe0M_VnaAPw3AtTbi0Y-10" value="nacionalidad" style="ellipse;whiteSpace=wrap;html=1;align=center;" parent="1" vertex="1">
          <mxGeometry x="490" y="370" width="100" height="40" as="geometry" />
        </mxCell>
        <mxCell id="5xe0M_VnaAPw3AtTbi0Y-11" value="marca" style="whiteSpace=wrap;html=1;align=center;fillColor=#1ba1e2;fontColor=#ffffff;strokeColor=#006EAF;" parent="1" vertex="1">
          <mxGeometry x="340" y="350" width="100" height="40" as="geometry" />
        </mxCell>
        <mxCell id="5xe0M_VnaAPw3AtTbi0Y-14" value="id_motor" style="ellipse;whiteSpace=wrap;html=1;align=center;fontStyle=4;fillColor=#b1ddf0;strokeColor=#10739e;" parent="1" vertex="1">
          <mxGeometry x="490" y="100" width="100" height="40" as="geometry" />
        </mxCell>
        <mxCell id="5xe0M_VnaAPw3AtTbi0Y-15" value="id_marca" style="ellipse;whiteSpace=wrap;html=1;align=center;fontStyle=4;fillColor=#b1ddf0;strokeColor=#10739e;" parent="1" vertex="1">
          <mxGeometry x="500" y="315" width="100" height="40" as="geometry" />
        </mxCell>
        <mxCell id="5xe0M_VnaAPw3AtTbi0Y-16" value="posee" style="shape=rhombus;perimeter=rhombusPerimeter;whiteSpace=wrap;html=1;align=center;fillColor=#008a00;fontColor=#ffffff;strokeColor=#005700;" parent="1" vertex="1">
          <mxGeometry x="340" y="155" width="100" height="50" as="geometry" />
        </mxCell>
        <mxCell id="5xe0M_VnaAPw3AtTbi0Y-18" value="" style="endArrow=none;html=1;rounded=0;exitX=1;exitY=0.5;exitDx=0;exitDy=0;entryX=0;entryY=0.5;entryDx=0;entryDy=0;" parent="1" source="5xe0M_VnaAPw3AtTbi0Y-1" target="5xe0M_VnaAPw3AtTbi0Y-16" edge="1">
          <mxGeometry relative="1" as="geometry">
            <mxPoint x="290" y="310" as="sourcePoint" />
            <mxPoint x="450" y="310" as="targetPoint" />
          </mxGeometry>
        </mxCell>
        <mxCell id="5xe0M_VnaAPw3AtTbi0Y-19" value="" style="endArrow=none;html=1;rounded=0;exitX=1;exitY=0.5;exitDx=0;exitDy=0;entryX=0;entryY=0.5;entryDx=0;entryDy=0;" parent="1" source="5xe0M_VnaAPw3AtTbi0Y-16" target="5xe0M_VnaAPw3AtTbi0Y-6" edge="1">
          <mxGeometry relative="1" as="geometry">
            <mxPoint x="300" y="320" as="sourcePoint" />
            <mxPoint x="460" y="320" as="targetPoint" />
          </mxGeometry>
        </mxCell>
        <mxCell id="5xe0M_VnaAPw3AtTbi0Y-20" value="fabrica" style="shape=rhombus;perimeter=rhombusPerimeter;whiteSpace=wrap;html=1;align=center;fillColor=#008a00;fontColor=#ffffff;strokeColor=#005700;" parent="1" vertex="1">
          <mxGeometry x="290" y="240" width="100" height="50" as="geometry" />
        </mxCell>
        <mxCell id="5xe0M_VnaAPw3AtTbi0Y-21" value="" style="endArrow=none;html=1;rounded=0;entryX=0.5;entryY=0;entryDx=0;entryDy=0;exitX=0.5;exitY=1;exitDx=0;exitDy=0;" parent="1" source="5xe0M_VnaAPw3AtTbi0Y-20" target="5xe0M_VnaAPw3AtTbi0Y-11" edge="1">
          <mxGeometry relative="1" as="geometry">
            <mxPoint x="280" y="300" as="sourcePoint" />
            <mxPoint x="440" y="300" as="targetPoint" />
          </mxGeometry>
        </mxCell>
        <mxCell id="5xe0M_VnaAPw3AtTbi0Y-22" value="" style="endArrow=none;html=1;rounded=0;exitX=0;exitY=1;exitDx=0;exitDy=0;entryX=0.5;entryY=0;entryDx=0;entryDy=0;" parent="1" source="5xe0M_VnaAPw3AtTbi0Y-6" target="9guUdpypJNybk5YA0oOB-15" edge="1">
          <mxGeometry relative="1" as="geometry">
            <mxPoint x="435" y="510" as="sourcePoint" />
            <mxPoint x="595" y="510" as="targetPoint" />
          </mxGeometry>
        </mxCell>
        <mxCell id="5xe0M_VnaAPw3AtTbi0Y-23" value="" style="endArrow=none;html=1;rounded=0;exitX=1;exitY=1;exitDx=0;exitDy=0;entryX=0;entryY=0;entryDx=0;entryDy=0;" parent="1" source="5xe0M_VnaAPw3AtTbi0Y-1" target="5xe0M_VnaAPw3AtTbi0Y-20" edge="1">
          <mxGeometry relative="1" as="geometry">
            <mxPoint x="445" y="520" as="sourcePoint" />
            <mxPoint x="605" y="520" as="targetPoint" />
          </mxGeometry>
        </mxCell>
        <mxCell id="5xe0M_VnaAPw3AtTbi0Y-24" value="" style="endArrow=none;html=1;rounded=0;exitX=0.5;exitY=1;exitDx=0;exitDy=0;entryX=0.5;entryY=0;entryDx=0;entryDy=0;" parent="1" source="5xe0M_VnaAPw3AtTbi0Y-2" target="5xe0M_VnaAPw3AtTbi0Y-1" edge="1">
          <mxGeometry relative="1" as="geometry">
            <mxPoint x="435" y="510" as="sourcePoint" />
            <mxPoint x="595" y="510" as="targetPoint" />
          </mxGeometry>
        </mxCell>
        <mxCell id="5xe0M_VnaAPw3AtTbi0Y-25" value="" style="endArrow=none;html=1;rounded=0;exitX=1;exitY=1;exitDx=0;exitDy=0;entryX=0;entryY=0;entryDx=0;entryDy=0;" parent="1" source="5xe0M_VnaAPw3AtTbi0Y-4" target="5xe0M_VnaAPw3AtTbi0Y-1" edge="1">
          <mxGeometry relative="1" as="geometry">
            <mxPoint x="445" y="520" as="sourcePoint" />
            <mxPoint x="605" y="520" as="targetPoint" />
          </mxGeometry>
        </mxCell>
        <mxCell id="5xe0M_VnaAPw3AtTbi0Y-26" value="" style="endArrow=none;html=1;rounded=0;exitX=1;exitY=0.5;exitDx=0;exitDy=0;entryX=0;entryY=0.5;entryDx=0;entryDy=0;" parent="1" source="5xe0M_VnaAPw3AtTbi0Y-5" target="5xe0M_VnaAPw3AtTbi0Y-1" edge="1">
          <mxGeometry relative="1" as="geometry">
            <mxPoint x="455" y="530" as="sourcePoint" />
            <mxPoint x="615" y="530" as="targetPoint" />
          </mxGeometry>
        </mxCell>
        <mxCell id="5xe0M_VnaAPw3AtTbi0Y-27" value="" style="endArrow=none;html=1;rounded=0;exitX=0.5;exitY=1;exitDx=0;exitDy=0;entryX=0.5;entryY=0;entryDx=0;entryDy=0;" parent="1" source="5xe0M_VnaAPw3AtTbi0Y-14" target="5xe0M_VnaAPw3AtTbi0Y-6" edge="1">
          <mxGeometry relative="1" as="geometry">
            <mxPoint x="465" y="540" as="sourcePoint" />
            <mxPoint x="625" y="540" as="targetPoint" />
          </mxGeometry>
        </mxCell>
        <mxCell id="5xe0M_VnaAPw3AtTbi0Y-28" value="" style="endArrow=none;html=1;rounded=0;exitX=0;exitY=1;exitDx=0;exitDy=0;entryX=1;entryY=0;entryDx=0;entryDy=0;" parent="1" source="5xe0M_VnaAPw3AtTbi0Y-7" target="5xe0M_VnaAPw3AtTbi0Y-6" edge="1">
          <mxGeometry relative="1" as="geometry">
            <mxPoint x="475" y="550" as="sourcePoint" />
            <mxPoint x="635" y="550" as="targetPoint" />
          </mxGeometry>
        </mxCell>
        <mxCell id="5xe0M_VnaAPw3AtTbi0Y-29" value="" style="endArrow=none;html=1;rounded=0;exitX=0;exitY=0.5;exitDx=0;exitDy=0;entryX=1;entryY=0.5;entryDx=0;entryDy=0;" parent="1" source="5xe0M_VnaAPw3AtTbi0Y-8" target="5xe0M_VnaAPw3AtTbi0Y-6" edge="1">
          <mxGeometry relative="1" as="geometry">
            <mxPoint x="485" y="560" as="sourcePoint" />
            <mxPoint x="645" y="560" as="targetPoint" />
          </mxGeometry>
        </mxCell>
        <mxCell id="5xe0M_VnaAPw3AtTbi0Y-30" value="" style="endArrow=none;html=1;rounded=0;exitX=1;exitY=1;exitDx=0;exitDy=0;entryX=0;entryY=0;entryDx=0;entryDy=0;" parent="1" source="5xe0M_VnaAPw3AtTbi0Y-6" target="5xe0M_VnaAPw3AtTbi0Y-9" edge="1">
          <mxGeometry relative="1" as="geometry">
            <mxPoint x="495" y="570" as="sourcePoint" />
            <mxPoint x="655" y="570" as="targetPoint" />
          </mxGeometry>
        </mxCell>
        <mxCell id="5xe0M_VnaAPw3AtTbi0Y-31" value="" style="endArrow=none;html=1;rounded=0;exitX=1;exitY=0;exitDx=0;exitDy=0;entryX=0;entryY=0.5;entryDx=0;entryDy=0;" parent="1" source="5xe0M_VnaAPw3AtTbi0Y-11" target="5xe0M_VnaAPw3AtTbi0Y-15" edge="1">
          <mxGeometry relative="1" as="geometry">
            <mxPoint x="505" y="580" as="sourcePoint" />
            <mxPoint x="665" y="580" as="targetPoint" />
          </mxGeometry>
        </mxCell>
        <mxCell id="5xe0M_VnaAPw3AtTbi0Y-32" value="" style="endArrow=none;html=1;rounded=0;exitX=1;exitY=0.75;exitDx=0;exitDy=0;entryX=0;entryY=0.5;entryDx=0;entryDy=0;" parent="1" source="5xe0M_VnaAPw3AtTbi0Y-11" target="5xe0M_VnaAPw3AtTbi0Y-10" edge="1">
          <mxGeometry relative="1" as="geometry">
            <mxPoint x="515" y="590" as="sourcePoint" />
            <mxPoint x="675" y="590" as="targetPoint" />
          </mxGeometry>
        </mxCell>
        <mxCell id="5xe0M_VnaAPw3AtTbi0Y-34" value="" style="endArrow=none;html=1;rounded=0;exitX=0.25;exitY=1;exitDx=0;exitDy=0;entryX=0.5;entryY=0;entryDx=0;entryDy=0;" parent="1" source="5xe0M_VnaAPw3AtTbi0Y-1" target="9guUdpypJNybk5YA0oOB-2" edge="1">
          <mxGeometry relative="1" as="geometry">
            <mxPoint x="435" y="510" as="sourcePoint" />
            <mxPoint x="190" y="240" as="targetPoint" />
          </mxGeometry>
        </mxCell>
        <mxCell id="9guUdpypJNybk5YA0oOB-6" style="edgeStyle=orthogonalEdgeStyle;rounded=0;orthogonalLoop=1;jettySize=auto;html=1;exitX=0.25;exitY=1;exitDx=0;exitDy=0;entryX=0.5;entryY=0;entryDx=0;entryDy=0;endArrow=none;endFill=0;" edge="1" parent="1" source="9guUdpypJNybk5YA0oOB-1" target="9guUdpypJNybk5YA0oOB-4">
          <mxGeometry relative="1" as="geometry" />
        </mxCell>
        <mxCell id="9guUdpypJNybk5YA0oOB-7" style="edgeStyle=orthogonalEdgeStyle;rounded=0;orthogonalLoop=1;jettySize=auto;html=1;exitX=0.75;exitY=1;exitDx=0;exitDy=0;entryX=0.5;entryY=0;entryDx=0;entryDy=0;endArrow=none;endFill=0;" edge="1" parent="1" source="9guUdpypJNybk5YA0oOB-1" target="9guUdpypJNybk5YA0oOB-5">
          <mxGeometry relative="1" as="geometry" />
        </mxCell>
        <mxCell id="9guUdpypJNybk5YA0oOB-1" value="accesorio" style="whiteSpace=wrap;html=1;align=center;fillColor=#1ba1e2;fontColor=#ffffff;strokeColor=#006EAF;" vertex="1" parent="1">
          <mxGeometry x="110" y="340" width="100" height="40" as="geometry" />
        </mxCell>
        <mxCell id="9guUdpypJNybk5YA0oOB-3" style="edgeStyle=orthogonalEdgeStyle;rounded=0;orthogonalLoop=1;jettySize=auto;html=1;exitX=0.5;exitY=1;exitDx=0;exitDy=0;entryX=0.75;entryY=0;entryDx=0;entryDy=0;endArrow=none;endFill=0;" edge="1" parent="1" source="9guUdpypJNybk5YA0oOB-2" target="9guUdpypJNybk5YA0oOB-1">
          <mxGeometry relative="1" as="geometry" />
        </mxCell>
        <mxCell id="9guUdpypJNybk5YA0oOB-9" style="edgeStyle=orthogonalEdgeStyle;rounded=0;orthogonalLoop=1;jettySize=auto;html=1;exitX=1;exitY=1;exitDx=0;exitDy=0;entryX=0;entryY=0;entryDx=0;entryDy=0;endArrow=none;endFill=0;" edge="1" parent="1" source="9guUdpypJNybk5YA0oOB-2" target="9guUdpypJNybk5YA0oOB-8">
          <mxGeometry relative="1" as="geometry" />
        </mxCell>
        <mxCell id="9guUdpypJNybk5YA0oOB-2" value="compuesto" style="shape=rhombus;perimeter=rhombusPerimeter;whiteSpace=wrap;html=1;align=center;fillColor=#008a00;fontColor=#ffffff;strokeColor=#005700;" vertex="1" parent="1">
          <mxGeometry x="130" y="250" width="100" height="50" as="geometry" />
        </mxCell>
        <mxCell id="9guUdpypJNybk5YA0oOB-4" value="codigo" style="ellipse;whiteSpace=wrap;html=1;align=center;fontStyle=4;fillColor=#b1ddf0;strokeColor=#10739e;" vertex="1" parent="1">
          <mxGeometry x="70" y="430" width="100" height="40" as="geometry" />
        </mxCell>
        <mxCell id="9guUdpypJNybk5YA0oOB-5" value="nombre" style="ellipse;whiteSpace=wrap;html=1;align=center;" vertex="1" parent="1">
          <mxGeometry x="200" y="420" width="100" height="40" as="geometry" />
        </mxCell>
        <mxCell id="9guUdpypJNybk5YA0oOB-8" value="opcional" style="ellipse;whiteSpace=wrap;html=1;align=center;" vertex="1" parent="1">
          <mxGeometry x="210" y="300" width="100" height="40" as="geometry" />
        </mxCell>
        <mxCell id="9guUdpypJNybk5YA0oOB-10" value="n" style="text;html=1;align=center;verticalAlign=middle;resizable=0;points=[];autosize=1;strokeColor=none;fillColor=none;" vertex="1" parent="1">
          <mxGeometry x="195" y="198" width="30" height="30" as="geometry" />
        </mxCell>
        <mxCell id="9guUdpypJNybk5YA0oOB-11" value="n" style="text;html=1;align=center;verticalAlign=middle;resizable=0;points=[];autosize=1;strokeColor=none;fillColor=none;" vertex="1" parent="1">
          <mxGeometry x="155" y="308" width="30" height="30" as="geometry" />
        </mxCell>
        <mxCell id="9guUdpypJNybk5YA0oOB-12" value="n" style="text;html=1;align=center;verticalAlign=middle;resizable=0;points=[];autosize=1;strokeColor=none;fillColor=none;" vertex="1" parent="1">
          <mxGeometry x="275" y="178" width="30" height="30" as="geometry" />
        </mxCell>
        <mxCell id="9guUdpypJNybk5YA0oOB-13" value="1" style="text;html=1;align=center;verticalAlign=middle;resizable=0;points=[];autosize=1;strokeColor=none;fillColor=none;" vertex="1" parent="1">
          <mxGeometry x="455" y="178" width="30" height="30" as="geometry" />
        </mxCell>
        <mxCell id="9guUdpypJNybk5YA0oOB-14" value="1" style="text;html=1;align=center;verticalAlign=middle;resizable=0;points=[];autosize=1;strokeColor=none;fillColor=none;" vertex="1" parent="1">
          <mxGeometry x="360" y="320" width="30" height="30" as="geometry" />
        </mxCell>
        <mxCell id="9guUdpypJNybk5YA0oOB-16" style="edgeStyle=orthogonalEdgeStyle;rounded=0;orthogonalLoop=1;jettySize=auto;html=1;exitX=0.5;exitY=1;exitDx=0;exitDy=0;entryX=0.75;entryY=0;entryDx=0;entryDy=0;endArrow=none;endFill=0;" edge="1" parent="1" source="9guUdpypJNybk5YA0oOB-15" target="5xe0M_VnaAPw3AtTbi0Y-11">
          <mxGeometry relative="1" as="geometry" />
        </mxCell>
        <mxCell id="9guUdpypJNybk5YA0oOB-15" value="fabrica" style="shape=rhombus;perimeter=rhombusPerimeter;whiteSpace=wrap;html=1;align=center;fillColor=#008a00;fontColor=#ffffff;strokeColor=#005700;" vertex="1" parent="1">
          <mxGeometry x="410" y="240" width="100" height="50" as="geometry" />
        </mxCell>
        <mxCell id="9guUdpypJNybk5YA0oOB-17" value="n" style="text;html=1;align=center;verticalAlign=middle;resizable=0;points=[];autosize=1;strokeColor=none;fillColor=none;" vertex="1" parent="1">
          <mxGeometry x="485" y="208" width="30" height="30" as="geometry" />
        </mxCell>
        <mxCell id="9guUdpypJNybk5YA0oOB-18" value="1" style="text;html=1;align=center;verticalAlign=middle;resizable=0;points=[];autosize=1;strokeColor=none;fillColor=none;" vertex="1" parent="1">
          <mxGeometry x="415" y="318" width="30" height="30" as="geometry" />
        </mxCell>
      </root>
    </mxGraphModel>
  </diagram>
</mxfile>
